<svg id="Layer_1" data-name="Layer 1" xmlns="http://www.w3.org/2000/svg" viewBox="0 0 893.22 1200.5"><defs><style>.cls-1{fill:#1e1d1c;}.cls-2{fill:#f9bbb2;}.cls-3{fill:#fff;}.cls-4{fill:#f4d3cb;}.cls-5{fill:#ffe2d8;}.cls-6{fill:#e2e2e2;}.cls-7{fill:#0890ff;}.cls-8{fill:#bababa;}.cls-9{fill:#444;}.cls-10{fill:#2d2d2d;}.cls-11{fill:#1e1e1e;}.cls-12{fill:#409b05;}.cls-13{font-size:31.1px;fill:#333;font-family:Grafolita Script;}</style></defs><title>butler</title><polygon class="cls-1" points="807.13 1127.77 711.43 1127.77 667.56 790.83 623.69 1127.77 527.99 1127.77 527.99 998.52 527.99 869.27 527.99 740.02 527.99 610.76 597.77 610.76 667.56 610.76 737.34 610.76 807.13 610.76 807.13 740.02 807.13 869.27 807.13 998.52 807.13 1127.77"/><polygon points="823.8 703.35 668.29 625.6 512.79 703.35 512.79 236.83 622.94 184.99 713.65 184.99 823.8 236.83 823.8 703.35"/><rect class="cls-2" x="577.27" y="54.68" width="28.51" height="62.2" rx="4.33" ry="4.33"/><rect class="cls-2" x="732.78" y="54.68" width="28.51" height="62.2" rx="4.33" ry="4.33"/><polygon class="cls-3" points="667.52 482.59 577.93 236.83 622.94 184.99 713.65 184.99 758.66 236.83 667.52 482.59"/><path class="cls-4" d="M622.94,167.9h90.71a0,0,0,0,1,0,0v90.67a13,13,0,0,1-13,13H635.94a13,13,0,0,1-13-13V167.9A0,0,0,0,1,622.94,167.9Z"/><path class="cls-5" d="M550-255.74v95.87a22.92,22.92,0,0,1-4.75,14.51L506-96.29C501.55-90.72,495-88,487.89-88H459.25c-7.1,0-13.84-2.72-18.25-8.29l-39.17-49.34A22.25,22.25,0,0,1,397-159.87v-95.87c0-.49-0.25-1.86-0.22-2.32C397.55-278.67,414.26-296,435-296H512.1c10.65,0,20.27,5.17,27.24,12.15,6.43,6.43,10.29,15.6,10.89,25.27C550.28-257.79,550-256.55,550-255.74Z" transform="translate(194.68 296)"/><path class="cls-6" d="M550.53-258.15a297.56,297.56,0,0,1-35.46,2.07c-27.73,0-53.24-3.65-73.45-9.8-8,6-19.78,9.8-32.94,9.8-4.22,0-8.29-1.26-12.16-2C397.31-278.67,414.26-296,435-296H512.1c10.65,0,20.27,5.17,27.24,12.15C545.77-277.43,549.94-267.82,550.53-258.15Z" transform="translate(194.68 296)"/><rect class="cls-2" x="642" y="126.82" width="51.03" height="11.44" rx="2.21" ry="2.21"/><path class="cls-6" d="M505.46-164.07H440.22a2.59,2.59,0,0,1-1.83-4.42L459.88-190H485.8l21.49,21.49A2.59,2.59,0,0,1,505.46-164.07Z" transform="translate(194.68 296)"/><rect class="cls-2" x="656.59" y="69.68" width="23.33" height="51.84" rx="4.41" ry="4.41"/><circle class="cls-3" cx="630.29" cy="68.88" r="10.37"/><circle class="cls-7" cx="630.29" cy="68.88" r="7.78"/><circle class="cls-3" cx="627.49" cy="65.8" r="3.89"/><circle class="cls-3" cx="700.26" cy="68.88" r="10.37"/><circle class="cls-7" cx="700.26" cy="68.88" r="7.78"/><circle class="cls-3" cx="697.47" cy="65.8" r="3.89"/><path class="cls-6" d="M591.59,38.18H611a0,0,0,0,1,0,0V88.12a7.48,7.48,0,0,1-7.48,7.48h-11.9a0,0,0,0,1,0,0V38.18a0,0,0,0,1,0,0Z"/><path class="cls-6" d="M530.85-257.82h11.9a7.48,7.48,0,0,1,7.48,7.48v49.94a0,0,0,0,1,0,0H530.85a0,0,0,0,1,0,0v-57.42A0,0,0,0,1,530.85-257.82Z" transform="translate(1275.76 -162.22) rotate(-180)"/><polygon points="713.68 293.97 713.68 238.89 680.7 257 654.26 257 620.68 238.89 620.68 293.97 652.07 275 682.89 275 713.68 293.97"/><circle cx="668.29" cy="319.41" r="8.58"/><circle cx="668.29" cy="360.87" r="8.58"/><circle cx="668.29" cy="402.34" r="8.58"/><rect x="180.31" y="-31.19" width="157.96" height="64.8" transform="translate(215.23 398.38) rotate(-23.23)"/><polygon class="cls-5" points="196.29 259.05 148.39 234.04 165.25 198.51 213.14 218.34 196.29 259.05"/><rect class="cls-3" x="-13.25" y="-81.06" width="51.84" height="51.84" transform="translate(174.55 286.96) rotate(22.49)"/><rect x="10.18" y="-40.37" width="209.8" height="64.8" transform="translate(200.38 251.38) rotate(22.49)"/><path class="cls-1" d="M434.17,904.5H379.64l0.43-6.61L256.63,904.5a6.87,6.87,0,0,1-6.93-7.23l0.77-12.61a28,28,0,0,1,23.92-25.79L430.06,835.2a3.55,3.55,0,0,1,4.11,3.46V904.5Z" transform="translate(194.68 296)"/><rect class="cls-1" x="537.41" y="1094.75" width="77.75" height="60.16"/><path class="cls-1" d="M514.05,904.5h54.54l-0.43-6.61,123.44,6.61a6.87,6.87,0,0,0,6.93-7.23l-0.77-12.61a28,28,0,0,0-23.92-25.79L518.16,835.2a3.55,3.55,0,0,0-4.11,3.46V904.5Z" transform="translate(194.68 296)"/><rect class="cls-1" x="527.74" y="798.75" width="77.75" height="60.16" transform="translate(1327.92 1953.67) rotate(-180)"/><polygon class="cls-5" points="165.85 238.89 55.78 212.97 55.78 192.76 165.85 197.95 165.85 238.89"/><rect class="cls-8" y="184.99" width="233.26" height="12.96" rx="2.5" ry="2.5"/><rect class="cls-9" x="-194.68" y="-228.21" width="181.43" height="51.84" transform="translate(293 -10.25) rotate(-90)"/><polygon class="cls-10" points="116.63 3 116.63 184.43 168.47 184.43 168.47 54.84 116.63 3"/><polygon class="cls-11" points="116.63 15.79 90.71 15.79 93.31 11.62 116.63 11.62 116.63 15.79"/><polygon class="cls-11" points="116.63 20.98 90.71 20.98 93.31 16.8 116.63 16.8 116.63 20.98"/><polygon class="cls-11" points="116.63 26.16 90.71 26.16 93.31 21.98 116.63 21.98 116.63 26.16"/><polygon class="cls-11" points="116.63 31.35 90.71 31.35 93.31 27.17 116.63 27.17 116.63 31.35"/><circle class="cls-3" cx="72.62" cy="15" r="3.89"/><circle class="cls-11" cx="72.62" cy="15" r="1.94"/><circle class="cls-3" cx="72.62" cy="25.37" r="3.89"/><circle class="cls-11" cx="72.62" cy="25.37" r="1.94"/><rect class="cls-12" x="89.42" y="135.97" width="2.59" height="5.18"/><rect class="cls-12" x="89.42" y="143.75" width="2.59" height="5.18"/><rect class="cls-12" x="89.42" y="151.52" width="2.59" height="5.18"/><rect class="cls-12" x="89.42" y="159.3" width="2.59" height="5.18"/><rect class="cls-12" x="89.42" y="167.08" width="2.59" height="5.18"/><path d="M693.92,96.33h-64.8V-59.17l60.15,26.47a7.78,7.78,0,0,1,4.64,7.12V96.33Z" transform="translate(194.68 296)"/><path d="M681.25,392.33H888.6a0,0,0,0,1,0,0v61.8a3,3,0,0,1-3,3H681.25a0,0,0,0,1,0,0v-64.8A0,0,0,0,1,681.25,392.33Z"/><rect class="cls-5" x="612.67" y="398.81" width="25.92" height="46.65"/><rect class="cls-3" x="629.42" y="396.22" width="51.84" height="51.84"/><path class="cls-5" d="M575.44,393.63h37.47a2,2,0,0,1,2,2v49.84a0,0,0,0,1,0,0H575.44a2,2,0,0,1-2-2V395.63A2,2,0,0,1,575.44,393.63Z"/><path class="cls-3" d="M613.56,251.84l-103.67-7.78L521.68,108a13,13,0,0,1,12.89-11.67h54.3A13,13,0,0,1,601.76,108Z" transform="translate(194.68 296)"/><text class="cls-13" transform="matrix(1, 0.05, -0.05, 1, 731.64, 509.14)">AB</text></svg>