<svg id="Layer_1" data-name="Layer 1" xmlns="http://www.w3.org/2000/svg" viewBox="0 0 122.94 20"><defs><style>.cls-1{font-size:17.51px;font-family:Essonnes;}.cls-1,.cls-2{fill:#fff;}</style></defs><title>logo</title><text class="cls-1" transform="translate(39.82 15.19)">App Butler</text><path class="cls-2" d="M369.08,168.71l-10.52,6a6.8,6.8,0,0,0-3.55-.57c-1.7,0-2.92.08-3.65,0.66l-10.61-6.1a1.17,1.17,0,0,0-1.75,1v15.73a1.16,1.16,0,0,0,1.74,1l10.58-6.1c0.73,0.57,1.93.66,3.63,0.66a6.58,6.58,0,0,0,3.51-.58l10.63,6a1.3,1.3,0,0,0,1.91-1V169.69A1.31,1.31,0,0,0,369.08,168.71Z" transform="translate(-339 -167.83)"/></svg>